<svg width="492" height="620" viewBox="0 0 492 620" fill="none" xmlns="http://www.w3.org/2000/svg">
<rect x="0.5" width="491" height="620" rx="18" fill="#67E8F9"/>
<rect x="16.5" y="16" width="136" height="41" rx="12" fill="white"/>
<path d="M40.3995 25.5H53.0485L43.749 39.2837H31.1L40.3995 25.5Z" fill="#A5F3FC"/>
<path d="M40.9535 40.5612L37.3515 45.9H50.6005L59.9 32.1162H50.1215L44.4239 40.5612H40.9535Z" fill="#22D3EE"/>
<path d="M75.4324 34.32C75.2297 33.9467 74.9364 33.664 74.5524 33.472C74.179 33.2693 73.7364 33.168 73.2244 33.168C72.339 33.168 71.6297 33.4613 71.0964 34.048C70.563 34.624 70.2964 35.3973 70.2964 36.368C70.2964 37.4027 70.5737 38.2133 71.1284 38.8C71.6937 39.376 72.467 39.664 73.4484 39.664C74.1204 39.664 74.6857 39.4933 75.1444 39.152C75.6137 38.8107 75.955 38.32 76.1684 37.68H72.6964V35.664H78.6484V38.208C78.4457 38.8907 78.099 39.5253 77.6084 40.112C77.1284 40.6987 76.515 41.1733 75.7684 41.536C75.0217 41.8987 74.179 42.08 73.2404 42.08C72.131 42.08 71.139 41.84 70.2644 41.36C69.4004 40.8693 68.723 40.192 68.2324 39.328C67.7524 38.464 67.5124 37.4773 67.5124 36.368C67.5124 35.2587 67.7524 34.272 68.2324 33.408C68.723 32.5333 69.4004 31.856 70.2644 31.376C71.1284 30.8853 72.115 30.64 73.2244 30.64C74.5684 30.64 75.699 30.9653 76.6164 31.616C77.5444 32.2667 78.1577 33.168 78.4564 34.32H75.4324ZM87.1559 40.016H82.9639L82.2919 42H79.4279L83.4919 30.768H86.6599L90.7239 42H87.8279L87.1559 40.016ZM86.4519 37.904L85.0599 33.792L83.6839 37.904H86.4519ZM94.6968 39.888H98.2808V42H91.9608V30.768H94.6968V39.888ZM102.322 32.96V35.232H105.986V37.344H102.322V39.808H106.466V42H99.5858V30.768H106.466V32.96H102.322ZM113.97 42L111.634 37.76H110.978V42H108.242V30.768H112.834C113.719 30.768 114.471 30.9227 115.09 31.232C115.719 31.5413 116.189 31.968 116.498 32.512C116.807 33.0453 116.962 33.6427 116.962 34.304C116.962 35.0507 116.749 35.7173 116.322 36.304C115.906 36.8907 115.287 37.3067 114.466 37.552L117.058 42H113.97ZM110.978 35.824H112.674C113.175 35.824 113.549 35.7013 113.794 35.456C114.05 35.2107 114.178 34.864 114.178 34.416C114.178 33.9893 114.05 33.6533 113.794 33.408C113.549 33.1627 113.175 33.04 112.674 33.04H110.978V35.824ZM125.672 40.016H121.48L120.808 42H117.944L122.008 30.768H125.176L129.24 42H126.344L125.672 40.016ZM124.968 37.904L123.576 33.792L122.2 37.904H124.968ZM133.388 39.76H138.22V42H130.284V39.92L135.084 33.008H130.284V30.768H138.22V32.848L133.388 39.76Z" fill="#22D3EE"/>
<path d="M413.743 232.343C419.171 214.971 411.029 187.828 393.657 183.485C376.286 179.142 368.686 182.942 352.4 176.428C336.114 169.914 322.543 153.628 299.743 155.799C289.092 156.815 280.683 161.109 271.981 166.966C259.772 175.19 249.767 171.803 239.518 162.677C232.749 156.646 226.457 152.13 217.229 150.371C194.429 146.028 174.886 150.371 164.029 163.942C155.717 174.327 151.255 195.781 137.097 199.625C122.098 203.691 106.6 200.477 91.8286 207.371C67.4 218.771 74.4571 257.314 82.6 276.857C90.7429 296.4 67.4 312.686 68.4857 330.057C69.5714 347.429 76.0857 357.2 98.3429 361C111.257 363.204 121.952 356.06 133.417 351.229C150.821 343.868 167.986 344.584 185.314 351.468C203.228 358.59 220.057 368.66 240.029 367.537C263.409 366.217 281.829 354.606 301.985 343.987C318.021 335.551 329.285 339.796 344.436 347.244C357.829 353.824 372.448 360.159 387.143 353.4C401.599 346.75 410.676 332.56 413.879 317.327C416.777 303.566 412.397 290.212 410.149 276.732C407.63 261.657 409.194 246.908 413.743 232.343Z" fill="#A5F3FC"/>
<path opacity="0.8" d="M413.743 232.343C419.171 214.971 411.029 187.828 393.657 183.485C376.286 179.142 368.686 182.942 352.4 176.428C336.114 169.914 322.543 153.628 299.743 155.799C289.092 156.815 280.683 161.109 271.981 166.966C259.772 175.19 249.767 171.803 239.518 162.677C232.749 156.646 226.457 152.13 217.229 150.371C194.429 146.028 174.886 150.371 164.029 163.942C155.717 174.327 151.255 195.781 137.097 199.625C122.098 203.691 106.6 200.477 91.8286 207.371C67.4 218.771 74.4571 257.314 82.6 276.857C90.7429 296.4 67.4 312.686 68.4857 330.057C69.5714 347.429 76.0857 357.2 98.3429 361C111.257 363.204 121.952 356.06 133.417 351.229C150.821 343.868 167.986 344.584 185.314 351.468C203.228 358.59 220.057 368.66 240.029 367.537C263.409 366.217 281.829 354.606 301.985 343.987C318.021 335.551 329.285 339.796 344.436 347.244C357.829 353.824 372.448 360.159 387.143 353.4C401.599 346.75 410.676 332.56 413.879 317.327C416.777 303.566 412.397 290.212 410.149 276.732C407.63 261.657 409.194 246.908 413.743 232.343Z" fill="white"/>
<path d="M94.5754 289.262C94.5754 289.262 93.3052 292.752 90.6126 293.224C87.92 293.697 83.1429 288.469 86.172 285.776C89.2012 283.084 93.3052 287.362 94.5754 289.262Z" fill="#A5F3FC" stroke="#263238" stroke-linecap="round" stroke-linejoin="round"/>
<path d="M98.6957 272.14C98.6957 272.14 94.7329 281.814 96.318 286.569C97.9031 291.324 107.718 294.81 110.584 288.626C113.451 282.443 107.099 273.725 104.721 271.825C102.344 269.925 99.4883 270.555 98.6957 272.14Z" fill="#A5F3FC" stroke="#263238" stroke-linecap="round" stroke-linejoin="round"/>
<path d="M121.843 276.26C121.843 276.26 115.025 282.443 114.243 288.626C113.461 294.81 118.043 297.03 122.804 296.226C127.565 295.423 129.937 283.388 128.515 277.834C127.093 272.281 121.843 276.26 121.843 276.26Z" fill="#A5F3FC" stroke="#263238" stroke-linecap="round" stroke-linejoin="round"/>
<path d="M123.113 310.515C123.113 310.515 115.513 310.829 115.182 314.477C114.851 318.125 118.515 318.913 122.158 315.742C125.801 312.572 126.284 310.667 123.113 310.515Z" fill="#A5F3FC" stroke="#263238" stroke-linecap="round" stroke-linejoin="round"/>
<path d="M104.244 318.115C104.244 318.115 103.451 321.915 100.601 323.348C97.7512 324.781 92.67 321.763 95.368 317.165C98.066 312.567 102.816 316.215 104.244 318.115Z" fill="#A5F3FC" stroke="#263238" stroke-linecap="round" stroke-linejoin="round"/>
<path d="M97.5883 306.226C97.5883 306.226 96.1606 303.056 90.6126 305.14C85.0646 307.225 82.8443 310.368 86.3294 311.481C89.8146 312.594 97.5883 306.226 97.5883 306.226Z" fill="#A5F3FC" stroke="#263238" stroke-linecap="round" stroke-linejoin="round"/>
<path d="M113.44 268.171C113.44 268.171 114.39 270.392 116.295 269.914C118.201 269.436 118.673 266.586 121.686 267.379C124.699 268.171 127.234 271.657 127.234 270.093C127.234 268.53 123.434 264.388 119.145 264.388C114.857 264.388 113.597 266.114 113.44 268.171Z" fill="#A5F3FC" stroke="#263238" stroke-linecap="round" stroke-linejoin="round"/>
<path d="M105.595 292.122C105.595 292.122 108.912 301.834 109.623 310.129C110.335 318.424 109.623 331.686 109.623 331.686" stroke="#263238" stroke-linecap="round" stroke-linejoin="round"/>
<path d="M117.207 295.439C117.207 295.439 113.407 306.573 112.468 313.679C111.529 320.785 111.285 331.686 111.285 331.686" stroke="#263238" stroke-linecap="round" stroke-linejoin="round"/>
<path d="M115.313 315.341C115.313 315.341 113.651 315.813 112.707 331.919" stroke="#263238" stroke-linecap="round" stroke-linejoin="round"/>
<path d="M104.244 318.115C104.244 318.115 105.834 316.763 106.784 319.841C107.734 322.919 107.257 331.447 107.257 331.447" stroke="#263238" stroke-linecap="round" stroke-linejoin="round"/>
<path d="M108.342 316.589C109.585 323.538 108.44 331.214 108.44 331.214" stroke="#263238" stroke-linecap="round" stroke-linejoin="round"/>
<path d="M97.5883 306.226C97.5883 306.226 104.412 304.918 107.257 312.496C107.538 313.254 107.776 314.028 107.968 314.814" stroke="#263238" stroke-linecap="round" stroke-linejoin="round"/>
<path d="M126.077 298.881C126.077 298.881 127.505 295.711 133.053 297.795C138.601 299.88 140.821 303.028 137.331 304.136C133.84 305.243 126.077 298.881 126.077 298.881Z" fill="#A5F3FC" stroke="#263238" stroke-linecap="round" stroke-linejoin="round"/>
<path d="M120.008 300.271C118.324 301.48 117.065 303.19 116.409 305.156C113.565 312.757 113.89 331.453 113.89 331.453" stroke="#263238" stroke-linecap="round" stroke-linejoin="round"/>
<path d="M126.077 298.881C124.472 298.656 122.836 298.88 121.349 299.527" stroke="#263238" stroke-linecap="round" stroke-linejoin="round"/>
<path d="M102.051 294.098C103.832 296.248 105.196 298.711 106.073 301.362C109.873 312.257 111.285 326.236 110.573 331.447" stroke="#263238" stroke-linecap="round" stroke-linejoin="round"/>
<path d="M94.5754 289.262C94.5754 289.262 97.8814 289.777 101.225 293.197" stroke="#263238" stroke-linecap="round" stroke-linejoin="round"/>
<path d="M111.675 304.299C111.447 318.049 111.285 331.686 111.285 331.686" stroke="#263238" stroke-linecap="round" stroke-linejoin="round"/>
<path d="M113.44 268.171C113.44 268.171 112.707 267.482 112.229 279.8C112.045 284.588 111.86 293.485 111.686 302.6" stroke="#263238" stroke-linecap="round" stroke-linejoin="round"/>
<path d="M118.108 355.849H104.217C103.499 355.848 102.806 355.581 102.275 355.098C101.743 354.615 101.41 353.952 101.339 353.238L99.2006 331.214H123.13L120.991 353.238C120.921 353.953 120.587 354.617 120.054 355.1C119.521 355.582 118.827 355.849 118.108 355.849Z" fill="white" stroke="#263238" stroke-linecap="round" stroke-linejoin="round"/>
<path d="M99.9117 338.553L100.167 341.159H122.163L122.413 338.553H99.9117Z" fill="#263238" stroke="#263238" stroke-linecap="round" stroke-linejoin="round"/>
<path d="M121.61 346.848L121.745 345.426H100.579L100.721 346.848H121.61Z" fill="#263238" stroke="#263238" stroke-linecap="round" stroke-linejoin="round"/>
<path d="M119.813 337.37C120.859 337.37 121.707 336.522 121.707 335.475C121.707 334.429 120.859 333.581 119.813 333.581C118.767 333.581 117.918 334.429 117.918 335.475C117.918 336.522 118.767 337.37 119.813 337.37Z" fill="#263238" stroke="#263238" stroke-linecap="round" stroke-linejoin="round"/>
<path d="M102.756 337.37C103.131 337.37 103.498 337.258 103.81 337.05C104.122 336.841 104.365 336.545 104.508 336.198C104.651 335.851 104.688 335.469 104.614 335.102C104.54 334.734 104.358 334.396 104.092 334.132C103.826 333.867 103.487 333.688 103.119 333.616C102.751 333.544 102.37 333.583 102.024 333.728C101.678 333.873 101.383 334.118 101.176 334.431C100.969 334.744 100.86 335.111 100.862 335.486C100.865 335.987 101.065 336.466 101.42 336.819C101.775 337.172 102.256 337.37 102.756 337.37Z" fill="#263238" stroke="#263238" stroke-linecap="round" stroke-linejoin="round"/>
<path d="M108.44 337.37C109.486 337.37 110.335 336.522 110.335 335.475C110.335 334.429 109.486 333.581 108.44 333.581C107.394 333.581 106.545 334.429 106.545 335.475C106.545 336.522 107.394 337.37 108.44 337.37Z" fill="#263238" stroke="#263238" stroke-linecap="round" stroke-linejoin="round"/>
<path d="M114.124 337.37C115.17 337.37 116.018 336.522 116.018 335.475C116.018 334.429 115.17 333.581 114.124 333.581C113.077 333.581 112.229 334.429 112.229 335.475C112.229 336.522 113.077 337.37 114.124 337.37Z" fill="#263238" stroke="#263238" stroke-linecap="round" stroke-linejoin="round"/>
<path opacity="0.1" d="M248.986 360.458C341.478 360.458 416.457 358.27 416.457 355.572C416.457 352.874 341.478 350.686 248.986 350.686C156.494 350.686 81.5143 352.874 81.5143 355.572C81.5143 358.27 156.494 360.458 248.986 360.458Z" fill="#27272A"/>
<path d="M355.141 331.1C355.141 331.1 353.649 332.544 353.86 336.154C353.922 336.774 354.109 337.374 354.412 337.919C354.714 338.463 355.125 338.939 355.619 339.319C355.619 339.319 354.387 339.319 354.74 341.957C355.093 344.595 356.455 346.36 356.672 348.113C356.987 350.583 357.215 351.804 356.325 353.384C355.435 354.964 354.566 355.849 355.445 355.849C356.325 355.849 357.552 355.306 357.731 353.384C357.91 351.462 357.297 348.873 358.274 346.794C360.255 342.451 359.511 339.845 358.632 339.14C359.39 337.944 359.762 336.544 359.699 335.129C359.636 333.715 359.141 332.354 358.279 331.23L355.141 331.1Z" fill="#263238" stroke="#263238" stroke-linecap="round" stroke-linejoin="round"/>
<path d="M410.079 331.1C410.079 331.1 411.571 332.544 411.36 336.154C411.298 336.774 411.111 337.374 410.808 337.919C410.506 338.463 410.095 338.939 409.601 339.319C409.601 339.319 410.828 339.319 410.48 341.957C410.133 344.595 408.765 346.36 408.542 348.113C408.233 350.583 407.999 351.804 408.895 353.384C409.791 354.964 410.654 355.849 409.775 355.849C408.895 355.849 407.663 355.306 407.489 353.384C407.315 351.462 407.918 348.873 406.946 346.794C404.959 342.451 405.709 339.845 406.588 339.14C405.83 337.944 405.458 336.544 405.521 335.129C405.584 333.715 406.079 332.354 406.941 331.23L410.079 331.1Z" fill="#263238" stroke="#263238" stroke-linecap="round" stroke-linejoin="round"/>
<path d="M410.062 315.829H355.543C353.816 315.829 352.416 317.229 352.416 318.956V328.695C352.416 330.422 353.816 331.822 355.543 331.822H410.062C411.789 331.822 413.189 330.422 413.189 328.695V318.956C413.189 317.229 411.789 315.829 410.062 315.829Z" fill="#878787" stroke="#263238" stroke-linecap="round" stroke-linejoin="round"/>
<path d="M272.22 333.532V322.077H221.941V333.532C221.933 339.003 220.047 344.305 216.599 348.553L214.427 351.267H279.787L277.583 348.553C274.127 344.308 272.234 339.005 272.22 333.532Z" stroke="#263238" stroke-linecap="round" stroke-linejoin="round"/>
<path d="M279.777 351.272H214.4V354.258H279.777V351.272Z" stroke="#263238" stroke-linecap="round" stroke-linejoin="round"/>
<path d="M343.508 173.714H150.647C148.105 173.714 146.044 175.775 146.044 178.317V317.485C146.044 320.027 148.105 322.088 150.647 322.088H343.508C346.05 322.088 348.111 320.027 348.111 317.485V178.317C348.111 175.775 346.05 173.714 343.508 173.714Z" stroke="#263238" stroke-linecap="round" stroke-linejoin="round"/>
<path d="M146.044 299.022H348.111V317.479C348.111 318.084 347.992 318.683 347.761 319.241C347.53 319.8 347.191 320.307 346.763 320.735C346.336 321.162 345.828 321.501 345.27 321.732C344.711 321.964 344.113 322.083 343.508 322.083H150.653C149.432 322.083 148.261 321.598 147.397 320.735C146.534 319.871 146.049 318.7 146.049 317.479V299.022H146.044Z" stroke="#263238" stroke-linecap="round" stroke-linejoin="round"/>
<path d="M337.949 182.942H156.211V287.769H337.949V182.942Z" stroke="#263238" stroke-linecap="round" stroke-linejoin="round"/>
<path d="M392.924 193.376H309.737V251.929H392.924V193.376Z" fill="#263238" stroke="white" stroke-width="1.5" stroke-linecap="round" stroke-linejoin="round"/>
<path d="M377.399 209.439C380.454 209.439 382.93 206.963 382.93 203.908C382.93 200.853 380.454 198.376 377.399 198.376C374.343 198.376 371.867 200.853 371.867 203.908C371.867 206.963 374.343 209.439 377.399 209.439Z" fill="#A5F3FC" stroke="white" stroke-width="1.5" stroke-linecap="round" stroke-linejoin="round"/>
<path d="M340.088 242.288C342.256 242.288 344.013 240.531 344.013 238.363C344.013 236.195 342.256 234.438 340.088 234.438C337.92 234.438 336.163 236.195 336.163 238.363C336.163 240.531 337.92 242.288 340.088 242.288Z" fill="#A5F3FC" stroke="white" stroke-width="1.5" stroke-linecap="round" stroke-linejoin="round"/>
<path d="M322.95 219.971C322.951 220.713 322.732 221.439 322.32 222.056C321.909 222.674 321.323 223.156 320.638 223.44C319.953 223.725 319.198 223.8 318.47 223.656C317.742 223.512 317.073 223.155 316.548 222.631C316.023 222.106 315.665 221.438 315.52 220.71C315.375 219.982 315.449 219.228 315.733 218.542C316.016 217.856 316.497 217.27 317.114 216.858C317.731 216.445 318.457 216.225 319.199 216.225C320.193 216.225 321.146 216.62 321.849 217.322C322.553 218.024 322.949 218.977 322.95 219.971Z" fill="#A5F3FC" stroke="white" stroke-width="1.5" stroke-linecap="round" stroke-linejoin="round"/>
<path d="M338.286 197.839C338.286 198.161 338.19 198.475 338.011 198.743C337.832 199.011 337.578 199.22 337.28 199.343C336.983 199.466 336.655 199.499 336.339 199.436C336.024 199.373 335.733 199.218 335.506 198.99C335.278 198.762 335.123 198.472 335.06 198.156C334.997 197.84 335.029 197.513 335.153 197.215C335.276 196.918 335.485 196.663 335.752 196.484C336.02 196.305 336.335 196.21 336.657 196.21C337.089 196.21 337.503 196.382 337.809 196.687C338.114 196.992 338.286 197.407 338.286 197.839Z" fill="#A5F3FC" stroke="white" stroke-width="1.5" stroke-linecap="round" stroke-linejoin="round"/>
<path d="M392.93 201.943C379.803 213.277 363.556 230.714 356.748 251.951H392.93V201.943Z" fill="#A5F3FC" stroke="white" stroke-width="1.5" stroke-linecap="round" stroke-linejoin="round"/>
<path d="M288.674 193.376H205.487V251.929H288.674V193.376Z" fill="#A5F3FC" stroke="white" stroke-width="1.5" stroke-linecap="round" stroke-linejoin="round"/>
<path d="M288.674 229.965C286.455 229.271 284.304 228.377 282.247 227.294C271.894 221.936 266.895 206.584 250.826 208.37C234.757 210.156 235.832 221.578 225.855 235.86C215.877 250.143 205.508 251.929 205.508 251.929H288.674V229.965Z" fill="#263238" stroke="white" stroke-width="1.5" stroke-linecap="round" stroke-linejoin="round"/>
<path d="M205.487 193.376V213.706C209.981 212.957 216.072 210.921 220.48 205.515C223.553 201.715 226.354 197.426 229.264 193.376H205.487Z" fill="#263238" stroke="white" stroke-width="1.5" stroke-linecap="round" stroke-linejoin="round"/>
<path d="M273.143 209.439C276.198 209.439 278.675 206.963 278.675 203.908C278.675 200.853 276.198 198.376 273.143 198.376C270.088 198.376 267.611 200.853 267.611 203.908C267.611 206.963 270.088 209.439 273.143 209.439Z" fill="#263238" stroke="white" stroke-width="1.5" stroke-linecap="round" stroke-linejoin="round"/>
<path d="M235.832 242.288C238 242.288 239.757 240.531 239.757 238.363C239.757 236.195 238 234.438 235.832 234.438C233.665 234.438 231.907 236.195 231.907 238.363C231.907 240.531 233.665 242.288 235.832 242.288Z" fill="#A5F3FC" stroke="white" stroke-width="1.5" stroke-linecap="round" stroke-linejoin="round"/>
<path d="M225.371 219.531C225.371 220.273 225.151 220.998 224.739 221.615C224.327 222.232 223.741 222.713 223.056 222.997C222.37 223.281 221.616 223.355 220.888 223.21C220.161 223.066 219.492 222.708 218.968 222.184C218.443 221.659 218.086 220.991 217.941 220.263C217.796 219.535 217.871 218.781 218.155 218.096C218.439 217.41 218.919 216.824 219.536 216.412C220.153 216 220.878 215.78 221.62 215.78C222.113 215.779 222.601 215.876 223.057 216.064C223.512 216.252 223.926 216.529 224.274 216.877C224.623 217.226 224.899 217.639 225.087 218.095C225.276 218.55 225.372 219.038 225.371 219.531Z" fill="#263238" stroke="white" stroke-width="1.5" stroke-linecap="round" stroke-linejoin="round"/>
<path d="M234.057 197.839C234.057 198.161 233.962 198.475 233.783 198.743C233.604 199.011 233.349 199.22 233.052 199.343C232.754 199.466 232.427 199.499 232.111 199.436C231.795 199.373 231.505 199.218 231.277 198.99C231.049 198.762 230.894 198.472 230.831 198.156C230.768 197.84 230.801 197.513 230.924 197.215C231.047 196.918 231.256 196.663 231.524 196.484C231.792 196.305 232.106 196.21 232.429 196.21C232.86 196.21 233.275 196.382 233.58 196.687C233.886 196.992 234.057 197.407 234.057 197.839Z" fill="#263238" stroke="white" stroke-width="1.5" stroke-linecap="round" stroke-linejoin="round"/>
<path d="M184.418 193.376H101.231V251.929H184.418V193.376Z" fill="#263238" stroke="white" stroke-width="1.5" stroke-linecap="round" stroke-linejoin="round"/>
<path d="M101.231 198.989C109.2 207.643 122.717 218.836 141.771 223C160.12 227.017 174.935 220.329 184.424 213.668V193.376H101.231V198.989Z" fill="#A5F3FC" stroke="white" stroke-width="1.5" stroke-linecap="round" stroke-linejoin="round"/>
<path d="M168.887 209.439C171.942 209.439 174.419 206.963 174.419 203.908C174.419 200.853 171.942 198.376 168.887 198.376C165.832 198.376 163.355 200.853 163.355 203.908C163.355 206.963 165.832 209.439 168.887 209.439Z" fill="#263238" stroke="white" stroke-width="1.5" stroke-linecap="round" stroke-linejoin="round"/>
<path d="M131.577 242.288C133.744 242.288 135.501 240.531 135.501 238.363C135.501 236.195 133.744 234.438 131.577 234.438C129.409 234.438 127.652 236.195 127.652 238.363C127.652 240.531 129.409 242.288 131.577 242.288Z" fill="#A5F3FC" stroke="white" stroke-width="1.5" stroke-linecap="round" stroke-linejoin="round"/>
<path d="M114.439 219.971C114.44 220.713 114.22 221.439 113.809 222.057C113.397 222.675 112.811 223.156 112.125 223.441C111.44 223.726 110.685 223.8 109.957 223.656C109.229 223.511 108.56 223.154 108.035 222.629C107.51 222.104 107.153 221.435 107.008 220.707C106.864 219.979 106.938 219.224 107.223 218.538C107.507 217.853 107.989 217.267 108.607 216.855C109.224 216.443 109.95 216.224 110.693 216.225C111.686 216.225 112.639 216.62 113.341 217.322C114.044 218.025 114.439 218.977 114.439 219.971Z" fill="#A5F3FC" stroke="white" stroke-width="1.5" stroke-linecap="round" stroke-linejoin="round"/>
<path d="M129.791 197.839C129.791 198.161 129.695 198.475 129.516 198.743C129.337 199.011 129.083 199.22 128.785 199.343C128.488 199.466 128.16 199.499 127.844 199.436C127.528 199.373 127.238 199.218 127.01 198.99C126.783 198.762 126.628 198.472 126.565 198.156C126.502 197.84 126.534 197.513 126.657 197.215C126.781 196.918 126.989 196.663 127.257 196.484C127.525 196.305 127.84 196.21 128.162 196.21C128.594 196.21 129.008 196.382 129.314 196.687C129.619 196.992 129.791 197.407 129.791 197.839Z" fill="#263238" stroke="white" stroke-width="1.5" stroke-linecap="round" stroke-linejoin="round"/>
<path d="M184.418 232.582C172.361 234.389 151 239.226 132.543 251.929H184.445L184.418 232.582Z" fill="#A5F3FC" stroke="white" stroke-width="1.5" stroke-linecap="round" stroke-linejoin="round"/>
<path opacity="0.1" d="M310.329 388.686C328.467 388.686 343.171 385.527 343.171 381.629C343.171 377.732 328.467 374.572 310.329 374.572C292.19 374.572 277.486 377.732 277.486 381.629C277.486 385.527 292.19 388.686 310.329 388.686Z" fill="#27272A"/>
<path d="M297.571 219.314C297.571 219.314 296.366 221.04 296.019 221.556C295.671 222.072 294.293 221.903 294.64 223.109C294.749 223.707 295.052 224.253 295.503 224.661C295.503 224.661 295.845 228.803 295.329 230.524C294.814 232.245 294.64 233.461 295.872 234.492C297.105 235.524 301.051 235.182 302.772 234.84C304.493 234.498 308.119 233.803 308.64 231.387C309.161 228.972 308.293 223.282 305.014 221.388C301.735 219.493 299.14 218.304 297.571 219.314Z" fill="white" stroke="#263238" stroke-linecap="round" stroke-linejoin="round"/>
<path d="M303.972 207.436C303.972 207.436 294.998 212.436 294.83 214.162C294.662 215.889 299.488 225.019 300.519 226.062C301.551 227.104 302.419 229.514 301.209 230.378C300.64 230.827 300 231.176 299.314 231.409L298.625 230.714C298.663 231.722 299.025 232.691 299.656 233.477C300.693 234.682 301.556 235.198 303.624 235.372C305.693 235.546 309.661 236.409 312.592 235.372C315.524 234.335 317.424 233.819 320.013 230.54C322.603 227.262 324.15 223.988 323.27 221.404C322.391 218.82 322.065 215.536 318.613 211.399C315.16 207.263 309.145 204.505 303.972 207.436Z" fill="white" stroke="#263238" stroke-linecap="round" stroke-linejoin="round"/>
<path d="M311.17 229.547C312.043 229.907 312.953 230.167 313.884 230.323" stroke="#263238" stroke-linecap="round" stroke-linejoin="round"/>
<path d="M301.502 215.346C301.599 218.777 302.283 223.304 304.954 225.66C306.405 226.961 308.027 228.057 309.775 228.917" stroke="#263238" stroke-linecap="round" stroke-linejoin="round"/>
<path d="M301.681 210.867C301.681 210.867 301.594 211.529 301.54 212.588" stroke="#263238" stroke-linecap="round" stroke-linejoin="round"/>
<path d="M315.621 222.235C316.767 224.46 317.248 226.969 317.006 229.46" stroke="#263238" stroke-linecap="round" stroke-linejoin="round"/>
<path d="M307.017 207.252C307.017 207.252 305.644 214.483 311.838 218.272C312.915 218.919 313.866 219.756 314.644 220.742" stroke="#263238" stroke-linecap="round" stroke-linejoin="round"/>
<path d="M303.782 227.327C304.911 228.83 305.731 230.307 305.123 232.755" stroke="#263238" stroke-linecap="round" stroke-linejoin="round"/>
<path d="M300.649 216.203C300.649 216.203 299.618 220.335 301.339 223.803C301.68 224.472 302.077 225.109 302.528 225.709" stroke="#263238" stroke-linecap="round" stroke-linejoin="round"/>
<path d="M282.757 301.959C282.757 301.959 282.757 306.785 283.3 307.996C283.843 309.206 285.889 310.753 287.268 310.753C288.647 310.753 290.525 309.717 290.525 309.717V306.096C290.525 304.543 288.457 302.475 287.767 301.612C287.078 300.748 282.757 301.959 282.757 301.959Z" fill="white" stroke="#263238" stroke-linecap="round" stroke-linejoin="round"/>
<path d="M286.551 302.99C286.551 302.99 287.067 303.68 287.067 305.406C287.067 307.132 286.204 307.822 286.204 307.822L287.757 308.511C287.757 308.511 288.446 306.269 289.135 306.959" stroke="#263238" stroke-linecap="round" stroke-linejoin="round"/>
<path d="M321.457 374.214C321.457 374.214 321.886 378.453 321.457 379.74C321.028 381.027 320.257 382.004 317.38 381.759C314.503 381.515 314.764 380.592 312.294 380.842C309.824 381.092 308.423 381.412 306.29 381.45C304.156 381.488 301.947 378.855 304.732 378.394C307.191 378.058 309.502 377.022 311.387 375.408C313.407 373.779 319.096 373.562 321.457 374.214Z" fill="white" stroke="#263238" stroke-linecap="round" stroke-linejoin="round"/>
<path d="M317.424 381.759C319.812 381.96 320.762 381.325 321.251 380.364C318.249 381.569 316.251 379.55 313.998 379.55C311.894 379.661 309.805 379.976 307.761 380.489L303.461 379.403C303.429 380.321 304.895 381.499 306.333 381.472C308.467 381.434 309.862 381.113 312.337 380.864C314.813 380.614 314.541 381.515 317.424 381.759Z" fill="white" stroke="#263238" stroke-linecap="round" stroke-linejoin="round"/>
<path d="M326.739 294.37C326.739 294.37 327.602 302.225 326.565 305.33C325.529 308.435 321.908 319.016 318.661 327.045C317.353 330.302 316.561 332.299 316.908 334.194C317.255 336.089 316.734 336.61 317.25 337.126C317.766 337.641 322.081 355.409 323.634 360.93C325.187 366.451 324.839 375.245 324.839 375.245C324.839 375.245 324.296 375.935 319.839 376.456C317.034 376.768 314.209 376.882 311.387 376.798C311.387 376.798 308.629 363.861 308.798 359.377C308.966 354.893 306.04 340.92 306.04 336.61C306.04 332.299 306.214 314.353 306.214 314.353C306.214 314.353 298.451 305.732 297.588 301.074C296.725 296.416 296.898 294.864 296.898 294.864C296.898 294.864 313.629 300.059 326.739 294.37Z" fill="#A5F3FC" stroke="#263238" stroke-linecap="round" stroke-linejoin="round"/>
<path d="M296.828 375.837C296.828 375.837 295.411 376.016 292.572 376.19C289.733 376.363 288.131 376.733 290.085 378.497C292.04 380.261 293.277 381.162 299.667 382.047C306.056 382.932 307.658 382.226 308.543 380.961C309.427 379.697 309.085 375.636 309.085 375.636C309.085 375.636 299.347 377.286 296.828 375.837Z" fill="white" stroke="#263238" stroke-linecap="round" stroke-linejoin="round"/>
<path d="M294.819 380.174C291.47 379.393 289.879 377.894 289.249 377.107C289.163 377.433 289.401 377.878 290.085 378.497C292.04 380.272 293.277 381.162 299.667 382.047C306.056 382.932 307.658 382.226 308.543 380.961C308.629 380.837 308.698 380.702 308.749 380.56C305.486 381.526 299.151 381.184 294.819 380.174Z" fill="white" stroke="#263238" stroke-linecap="round" stroke-linejoin="round"/>
<path d="M317.424 307.8L312.25 310.732L310.008 322.132C310.008 322.132 308.108 337.658 308.108 340.046C308.108 342.435 309.514 351.978 310.524 359.915C311.171 365.526 311.46 371.172 311.387 376.819C308.589 378.134 305.506 378.728 302.419 378.546C297.414 378.198 294.309 374.404 294.309 374.404C294.309 374.404 296.035 368.715 296.035 363.709C296.035 358.704 296.725 347.673 296.898 345.084C297.037 343.228 296.862 341.361 296.383 339.563C296.035 338.01 292.583 328.005 291.899 319.037C291.215 310.069 289.825 294.544 289.825 294.544C289.825 294.544 297.935 295.928 305.524 296.617C313.113 297.307 318.803 296.786 322.081 295.407" fill="#A5F3FC"/>
<path d="M317.424 307.8L312.25 310.732L310.008 322.132C310.008 322.132 308.108 337.658 308.108 340.046C308.108 342.435 309.514 351.978 310.524 359.915C311.171 365.526 311.46 371.172 311.387 376.819C308.589 378.134 305.506 378.728 302.419 378.546C297.414 378.198 294.309 374.404 294.309 374.404C294.309 374.404 296.035 368.715 296.035 363.709C296.035 358.704 296.725 347.673 296.898 345.084C297.037 343.228 296.862 341.361 296.383 339.563C296.035 338.01 292.583 328.005 291.899 319.037C291.215 310.069 289.825 294.544 289.825 294.544C289.825 294.544 297.935 295.928 305.524 296.617C313.113 297.307 318.803 296.786 322.081 295.407" stroke="#263238" stroke-linecap="round" stroke-linejoin="round"/>
<path d="M297.571 372.124C297.354 373.34 297.148 374.257 297.148 374.257" stroke="#263238" stroke-linecap="round" stroke-linejoin="round"/>
<path d="M296.285 326.312C296.411 327.109 296.578 327.899 296.784 328.679C298.221 334.123 299.374 339.639 300.237 345.203C300.416 346.832 298.239 366.266 298.065 368.628C298.033 369.073 297.979 369.551 297.913 370.034" stroke="#263238" stroke-linecap="round" stroke-linejoin="round"/>
<path d="M294.211 304.896C294.559 310.129 295.15 318.039 295.878 323.57" stroke="#263238" stroke-linecap="round" stroke-linejoin="round"/>
<path d="M293.88 299.446C293.88 299.446 293.951 300.786 294.086 302.904" stroke="#263238" stroke-linecap="round" stroke-linejoin="round"/>
<path d="M318.803 239.861L322.06 236.24C321.375 234.854 320.32 233.685 319.011 232.863C317.702 232.041 316.19 231.598 314.644 231.583C309.123 231.409 303.603 232.793 300.671 234.688C297.74 236.582 293.429 239.861 292.045 240.551C290.661 241.24 297.913 243.314 297.913 243.314C297.913 243.314 293.771 247.624 291.182 249.866C288.593 252.108 287.925 265.734 288.082 271.771C288.24 277.807 286.356 294.712 286.356 294.712C290.714 296.306 295.221 297.463 299.808 298.164C307.571 299.37 308.434 301.27 315.676 299.885C322.917 298.501 333.291 293.686 333.291 293.686C333.291 293.686 327.944 277.123 328.465 272.987C328.987 268.85 331.049 260.913 329.844 256.945C328.639 252.977 324.497 244.003 318.803 239.861Z" fill="#263238" stroke="#263238" stroke-linecap="round" stroke-linejoin="round"/>
<path d="M304.661 270.218L288.104 274.36L285.341 289.191C285.341 289.191 297.246 292.817 302.761 291.091C307.283 289.68 308.999 287.904 309.145 283.154C309.319 277.639 306.214 270.739 306.214 270.739L304.661 270.218Z" fill="#878787" stroke="#263238" stroke-linecap="round" stroke-linejoin="round"/>
<path d="M303.695 289.343C303.297 289.804 302.828 290.198 302.305 290.51" stroke="#263238" stroke-linecap="round" stroke-linejoin="round"/>
<path d="M304.243 273.736C304.243 273.736 306.007 281.667 305.475 285.369C305.364 286.19 305.122 286.987 304.759 287.731" stroke="#263238" stroke-linecap="round" stroke-linejoin="round"/>
<path d="M294.656 246.419C294.656 246.419 302.072 255.561 304.14 273.149L306.04 272.807C306.04 272.807 304.661 252.971 296.035 245.035L294.656 246.419Z" fill="#878787" stroke="#263238" stroke-linecap="round" stroke-linejoin="round"/>
<path d="M293.771 248.14C293.771 248.14 289.971 249.177 287.387 254.008C284.803 258.84 279.456 274.013 278.941 277.291C278.425 280.57 281.351 301.27 281.698 302.127C282.046 302.985 287.735 301.612 287.735 301.612H288.424L288.598 295.749L286.356 294.712L295.861 263.829" fill="#263238"/>
<path d="M293.771 248.14C293.771 248.14 289.971 249.177 287.387 254.008C284.803 258.84 279.456 274.013 278.941 277.291C278.425 280.57 281.351 301.27 281.698 302.127C282.046 302.985 287.735 301.612 287.735 301.612H288.424L288.598 295.749L286.356 294.712L295.861 263.829" stroke="#263238" stroke-linecap="round" stroke-linejoin="round"/>
<path opacity="0.1" d="M202.843 388.686C220.981 388.686 235.686 385.527 235.686 381.629C235.686 377.732 220.981 374.572 202.843 374.572C184.704 374.572 170 377.732 170 381.629C170 385.527 184.704 388.686 202.843 388.686Z" fill="#27272A"/>
<path d="M187.616 302.752C187.616 302.752 194.575 330.052 194.939 331.881C195.303 333.711 195.482 335.361 193.31 338.108C191.139 340.855 188.729 349.834 188.729 357.162C188.729 364.491 189.885 368.101 187.811 377.683C187.502 379.127 187.632 380.614 190.379 380.978C193.126 381.341 200.27 380.066 201.003 380.066C201.735 380.066 203.386 379.881 203.57 378.779C203.755 377.677 198.603 376.201 197.143 375.115C196.307 374.497 195.513 373.824 194.765 373.101C194.765 373.101 200.807 353.319 201.909 347.456C203.011 341.593 205.204 339.943 204.656 330.785C204.108 321.627 203.375 303.854 203.375 303.854C203.375 303.854 190.911 303.669 187.616 302.752Z" fill="white" stroke="#263238" stroke-linecap="round" stroke-linejoin="round"/>
<path d="M197.143 375.115C196.307 374.497 195.513 373.824 194.765 373.101L195.308 375.669C195.308 375.669 194.222 376.032 190.911 376.032C189.97 376.016 189.035 375.885 188.126 375.641C188.034 376.401 187.925 377.091 187.795 377.683C187.48 379.127 187.616 380.614 190.363 380.978C193.109 381.341 200.253 380.066 200.986 380.066C201.719 380.066 203.369 379.881 203.554 378.779C203.739 377.677 198.603 376.201 197.143 375.115Z" fill="#263238" stroke="#263238" stroke-linecap="round" stroke-linejoin="round"/>
<path d="M201.399 304.679C201.399 304.679 201.535 329.96 201.811 332.707C202.042 335.131 201.996 337.573 201.676 339.986C201.211 344.313 201.119 348.672 201.399 353.015C201.811 357.825 202.772 370.739 202.908 373.763C203.044 376.787 202.637 380.771 202.637 381.455C202.637 382.139 206.209 382.416 209.368 382.416C212.527 382.416 215.415 380.907 216.376 379.257C217.337 377.607 216.099 377.471 214.862 377.471C213.624 377.471 210.193 376.928 209.368 376.233C208.825 375.772 208.32 375.267 207.859 374.724C207.859 374.724 210.741 361.12 211.567 351.642C212.392 342.163 212.392 336.664 212.392 336.664C212.392 336.664 216.925 315.639 217.06 309.32C217.196 303.001 217.201 301.08 217.201 301.08C217.201 301.08 203.733 304.125 201.399 304.679Z" fill="white" stroke="#263238" stroke-linecap="round" stroke-linejoin="round"/>
<path d="M189.651 310.65L190.52 311.009L201.486 315.541C205.32 313.348 209.344 311.506 213.51 310.037C220.442 307.594 199.651 307.594 199.651 307.594L190.477 308.609L189.651 310.65Z" fill="#263238" stroke="#263238" stroke-linecap="round" stroke-linejoin="round"/>
<path d="M214.862 377.498C213.629 377.498 210.193 376.955 209.368 376.26C209.14 376.07 208.923 375.869 208.727 375.679L208.543 375.712L208.82 378.046C206.854 378.439 204.837 378.509 202.848 378.253C202.761 379.832 202.647 381.119 202.647 381.51C202.647 382.199 206.219 382.471 209.379 382.471C212.538 382.471 215.426 380.961 216.387 379.311C217.348 377.661 216.099 377.498 214.862 377.498Z" fill="#263238" stroke="#263238" stroke-linecap="round" stroke-linejoin="round"/>
<path d="M186.438 276.26C186.438 276.26 183.599 284.674 182.833 289.446C182.068 294.218 182.833 307.143 182.833 307.143C182.833 307.143 190.265 311.915 199.336 311.79C208.407 311.665 221.305 308.886 221.305 308.886C221.305 308.886 219.557 289.343 218.244 284.457C216.93 279.572 215.73 276.314 215.73 276.314C215.73 276.314 201.958 277.319 197.697 276.445C193.435 275.571 187.095 274.436 187.095 274.436L186.438 276.26Z" fill="#BFBFBF"/>
<path d="M218.483 304.315C219.308 304.112 220.084 303.906 220.811 303.696C220.752 303.083 220.687 302.442 220.616 301.769C219.91 301.975 219.156 302.187 218.352 302.382C218.2 300.325 218.021 298.208 217.809 296.112C218.493 295.808 219.183 295.472 219.872 295.119C219.791 294.462 219.715 293.811 219.633 293.165C218.96 293.523 218.293 293.86 217.625 294.164C217.505 292.92 217.381 291.688 217.256 290.494C217.902 290.326 218.553 290.141 219.21 289.951C219.116 289.292 219.024 288.668 218.933 288.078C218.298 288.268 217.674 288.447 217.055 288.621C216.854 286.786 216.659 285.065 216.479 283.513C216.93 283.35 217.381 283.171 217.831 282.97C217.652 282.335 217.473 281.732 217.288 281.168C216.935 281.314 216.583 281.455 216.23 281.586C215.904 278.871 215.649 276.906 215.567 276.271L213.472 276.407L212.576 276.537C212.576 276.618 212.848 278.98 213.211 282.552C212.044 282.861 210.861 283.108 209.667 283.29C209.504 280.576 209.39 278.741 209.373 278.459L207.745 278.594C207.745 278.67 207.87 280.56 208.038 283.48C206.352 283.65 204.656 283.704 202.962 283.643C203.103 281.602 203.201 280.386 203.207 280.326L201.578 280.152C201.578 280.201 201.469 281.455 201.323 283.545L200.709 283.486C200.905 280.467 201.041 278.475 201.046 278.393L199.417 278.247C199.417 278.551 199.265 280.473 199.081 283.301C197.821 283.127 196.613 282.914 195.455 282.66C196.296 279.262 196.98 277.188 197.002 277.123L195.465 276.445C195.465 276.51 194.722 278.697 193.837 282.275C192.501 281.928 191.264 281.553 190.14 281.189C190.737 278.573 191.307 276.515 191.682 275.218L190.053 274.914C189.668 276.233 189.141 278.171 188.582 280.614L188.186 280.456C188.729 278.041 189.271 276.113 189.641 274.838L188.012 274.539C187.648 275.809 187.165 277.612 186.649 279.821C186.226 279.637 185.846 279.463 185.499 279.278C185.325 279.821 185.14 280.429 184.956 281.064C185.347 281.244 185.77 281.434 186.248 281.64C185.971 282.943 185.705 284.354 185.423 285.858C184.804 285.543 184.288 285.255 183.854 285C183.685 285.635 183.528 286.265 183.387 286.878C183.875 287.166 184.435 287.476 185.097 287.812C184.825 289.522 184.581 291.33 184.375 293.203C183.713 292.882 183.126 292.578 182.616 292.296C182.583 292.948 182.562 293.632 182.551 294.348C183.045 294.603 183.588 294.891 184.179 295.152C184.033 296.824 183.924 298.539 183.865 300.282C183.392 300.081 182.963 299.885 182.573 299.695C182.573 300.417 182.611 301.123 182.632 301.791C183.001 301.964 183.398 302.133 183.816 302.334C183.816 304.13 183.848 305.949 183.962 307.762C184.413 308.001 184.983 308.305 185.672 308.62C185.526 306.72 185.461 304.82 185.466 302.952L185.824 303.083C185.824 304.961 185.868 306.883 185.993 308.767C186.535 309 187.078 309.244 187.697 309.489C187.54 307.529 187.469 305.564 187.469 303.626C188.463 303.93 189.543 304.223 190.726 304.494C190.667 306.476 190.677 308.501 190.77 310.536C191.313 310.694 191.855 310.84 192.442 310.976C192.333 308.913 192.306 306.856 192.366 304.842C193.994 305.167 195.824 305.439 197.794 305.634C197.675 307.969 197.577 310.064 197.517 311.731C198.06 311.763 198.603 311.774 199.146 311.774C199.2 310.145 199.298 308.077 199.417 305.77C199.673 305.77 199.922 305.808 200.183 305.819C200.112 307.8 200.058 309.793 200.015 311.758C200.557 311.758 201.1 311.725 201.643 311.693C201.687 309.771 201.741 307.827 201.806 305.895C202.284 305.895 202.767 305.906 203.255 305.927H204.097C205.877 305.927 207.56 305.857 209.151 305.737C209.216 307.561 209.259 309.309 209.292 310.927L210.921 310.694C210.893 309.098 210.845 307.382 210.785 305.596C212.343 305.439 213.792 305.227 215.155 304.988C215.258 306.742 215.339 308.425 215.394 309.977L217.022 309.684C216.968 308.115 216.887 306.427 216.783 304.673H216.843C216.957 306.432 217.044 308.115 217.098 309.679C217.701 309.57 218.249 309.467 218.727 309.369C218.689 307.8 218.602 306.085 218.483 304.315ZM185.824 301.101L185.455 300.966C185.499 299.239 185.596 297.54 185.732 295.884L186.117 296.047C185.976 297.692 185.873 299.38 185.824 301.101ZM186.302 294.115L185.911 293.946C186.107 292.079 186.345 290.282 186.606 288.578L187.002 288.751C186.736 290.456 186.497 292.253 186.286 294.115H186.302ZM187.323 286.802L186.926 286.623C187.192 285.082 187.469 283.632 187.762 282.28L188.164 282.432C187.876 283.795 187.594 285.25 187.323 286.802ZM190.748 302.578C189.554 302.29 188.457 301.981 187.458 301.66C187.496 299.967 187.589 298.3 187.719 296.672C188.772 297.062 189.89 297.437 191.123 297.757C190.965 299.337 190.835 300.944 190.748 302.578ZM191.334 295.895C190.102 295.542 188.951 295.152 187.893 294.75C188.083 292.893 188.316 291.102 188.577 289.392C189.662 289.804 190.824 290.206 192.111 290.57C191.828 292.253 191.562 294.033 191.334 295.895ZM188.891 287.443C189.157 285.869 189.434 284.381 189.738 283.013C190.857 283.393 192.083 283.768 193.403 284.099C193.088 285.467 192.767 286.987 192.458 288.626C191.171 288.257 189.961 287.861 188.891 287.443ZM197.827 303.756C196.004 303.574 194.193 303.298 192.398 302.931C192.48 301.302 192.605 299.739 192.757 298.202C194.519 298.632 196.307 298.95 198.109 299.152C197.995 300.743 197.908 302.268 197.827 303.756ZM198.196 297.269C196.426 297.067 194.671 296.753 192.941 296.33C193.164 294.462 193.43 292.676 193.717 290.993C195.303 291.376 196.909 291.669 198.527 291.873C198.419 293.626 198.305 295.45 198.196 297.269ZM198.652 289.908C197.109 289.709 195.577 289.426 194.065 289.061C194.374 287.405 194.7 285.874 195.015 284.501C196.263 284.778 197.583 285.016 198.956 285.201C198.858 286.629 198.771 288.257 198.652 289.886V289.908ZM200.205 303.94L199.472 303.892C199.553 302.415 199.64 300.868 199.732 299.299L200.405 299.337C200.335 300.841 200.264 302.372 200.205 303.94ZM200.498 297.453L199.846 297.415C199.949 295.608 200.063 293.794 200.172 292.046C200.373 292.046 200.579 292.084 200.785 292.095C200.688 293.784 200.59 295.58 200.498 297.453ZM200.905 290.141L200.297 290.092C200.4 288.415 200.503 286.835 200.595 285.386L201.203 285.44C201.111 286.808 201.008 288.388 200.905 290.141ZM202.854 285.538C203.375 285.559 203.901 285.57 204.433 285.57C205.655 285.57 206.903 285.51 208.168 285.386C208.25 286.813 208.337 288.409 208.429 290.108C206.474 290.274 204.51 290.318 202.55 290.239C202.658 288.485 202.761 286.9 202.854 285.543V285.538ZM202.43 292.193C203.033 292.193 203.641 292.231 204.26 292.231C205.628 292.231 207.055 292.166 208.532 292.036C208.613 293.621 208.695 295.293 208.771 296.948C206.583 297.333 204.364 297.514 202.143 297.491C202.24 295.64 202.338 293.86 202.43 292.193ZM203.25 304.054C202.778 304.054 202.311 304.054 201.855 304.022C201.915 302.453 201.98 300.9 202.05 299.391H202.457C204.602 299.393 206.744 299.212 208.858 298.848C208.934 300.526 209.004 302.209 209.064 303.854C207.245 304 205.313 304.076 203.25 304.054ZM209.813 285.185C211.03 285.006 212.237 284.763 213.429 284.457C213.581 285.956 213.738 287.6 213.901 289.343C212.587 289.604 211.311 289.804 210.063 289.956C209.981 288.225 209.895 286.629 209.813 285.185ZM210.177 291.867C211.442 291.71 212.75 291.498 214.085 291.227C214.21 292.606 214.335 294.022 214.455 295.456C213.131 295.925 211.781 296.315 210.41 296.623C210.334 295 210.258 293.404 210.171 291.867H210.177ZM210.72 303.707C210.655 302.002 210.584 300.265 210.503 298.528C211.896 298.226 213.27 297.842 214.617 297.377C214.769 299.299 214.911 301.226 215.035 303.094C213.693 303.336 212.252 303.541 210.714 303.707H210.72ZM216.691 302.768C216.572 300.911 216.431 299.006 216.279 297.106C216.452 299.006 216.61 300.906 216.745 302.757L216.691 302.768Z" fill="#ABABAB"/>
<path d="M186.438 276.26C186.438 276.26 183.599 284.674 182.833 289.446C182.068 294.218 182.833 307.143 182.833 307.143C182.833 307.143 190.265 311.915 199.336 311.79C208.407 311.665 221.305 308.886 221.305 308.886C221.305 308.886 219.557 289.343 218.244 284.457C216.93 279.572 215.73 276.314 215.73 276.314C215.73 276.314 201.958 277.319 197.697 276.445C193.435 275.571 187.095 274.436 187.095 274.436L186.438 276.26Z" stroke="#263238" stroke-linecap="round" stroke-linejoin="round"/>
<path d="M208 216.556C208 216.556 207.457 224.064 209.672 229.628C211.887 235.193 213.787 237.874 213.787 237.874L203.554 238.249C203.554 238.249 201.307 221.285 208 216.556Z" fill="#263238" stroke="#263238" stroke-linecap="round" stroke-linejoin="round"/>
<path d="M206.876 235.795C206.876 235.795 211.138 236.235 212.56 238.748C213.982 241.262 214.731 252.955 214.731 258.747C214.731 264.54 217.685 277.004 217.685 277.004C217.685 277.004 203.57 280.391 197.572 280.065C191.573 279.74 185.439 277.004 185.439 277.004C185.439 277.004 187.844 267.059 187.61 263.774C187.377 260.49 179.408 244.541 179.408 240.605C179.408 236.669 187.171 234.704 188.919 234.482C190.667 234.259 200.943 234.704 200.943 234.704L206.876 235.795Z" fill="white" stroke="#263238" stroke-linecap="round" stroke-linejoin="round"/>
<path d="M200.975 206.611C202.519 206.668 204.063 206.522 205.568 206.177C207.425 205.634 209.281 206.063 209.721 209.89C210.161 213.717 207.549 220.383 207.207 225.741C206.865 231.1 207.973 234.704 207.207 238.309C206.442 241.913 203.95 246.18 202.398 249.459C200.845 252.738 200.427 257.982 201.084 261.592C201.741 265.202 197.827 267.384 190.699 268.15C183.571 268.915 181.08 266.727 179.115 259.404C178.337 256.548 178.209 253.555 178.738 250.643C179.268 247.731 180.443 244.975 182.176 242.576C184.69 239.08 187.529 233.722 187.529 226.833C187.529 219.944 185.9 215.905 187.203 211.529C188.506 207.154 195.84 203.772 200.65 206.503" fill="#263238"/>
<path d="M200.975 206.611C202.519 206.668 204.063 206.522 205.568 206.177C207.425 205.634 209.281 206.063 209.721 209.89C210.161 213.717 207.549 220.383 207.207 225.741C206.865 231.1 207.973 234.704 207.207 238.309C206.442 241.913 203.95 246.18 202.398 249.459C200.845 252.738 200.427 257.982 201.084 261.592C201.741 265.202 197.827 267.384 190.699 268.15C183.571 268.915 181.08 266.727 179.115 259.404C178.337 256.548 178.209 253.555 178.738 250.643C179.268 247.731 180.443 244.975 182.176 242.576C184.69 239.08 187.529 233.722 187.529 226.833C187.529 219.944 185.9 215.905 187.203 211.529C188.506 207.154 195.84 203.772 200.65 206.503" stroke="#263238" stroke-linecap="round" stroke-linejoin="round"/>
<path d="M214.199 257.439H200.975C200.975 257.439 199.119 273.068 198.571 276.895C198.022 280.722 196.399 283.453 199.656 284.761C202.913 286.07 209.493 287.058 215.725 285.527C221.957 283.996 223.922 284.218 224.687 281.727C225.453 279.235 224.031 275.603 222.831 273.524C222.071 272.254 221.067 271.147 219.878 270.267C219.878 270.267 216.165 260.322 215.725 259.122C215.595 258.754 215.394 258.416 215.132 258.127C214.87 257.838 214.553 257.604 214.199 257.439Z" fill="#A5F3FC" stroke="#263238" stroke-linecap="round" stroke-linejoin="round"/>
<path d="M210.714 270.272C210.361 270.956 209.987 271.635 209.629 272.281" stroke="#263238" stroke-linecap="round" stroke-linejoin="round"/>
<path d="M214.71 260.691C214.71 260.691 213.624 263.997 211.952 267.661" stroke="#263238" stroke-linecap="round" stroke-linejoin="round"/>
<path d="M215.16 263.145C215.16 263.145 214.938 266.038 214.265 270.05" stroke="#263238" stroke-linecap="round" stroke-linejoin="round"/>
<path d="M207.75 236.686C209.827 236.536 211.906 236.953 213.765 237.891C216.479 239.416 219.226 246.853 220.757 250.349C222.288 253.845 227.423 264.556 227.315 266.309C227.24 266.921 227.036 267.511 226.716 268.038C226.396 268.565 225.967 269.017 225.458 269.366C223.71 270.571 219.883 270.24 219.883 270.24C219.883 270.24 217.169 266.309 216.496 263.356C215.823 260.403 214.324 258.329 213.239 256.467C212.153 254.605 209.086 249.35 209.086 249.35" fill="white"/>
<path d="M207.75 236.686C209.827 236.536 211.906 236.953 213.765 237.891C216.479 239.416 219.226 246.853 220.757 250.349C222.288 253.845 227.423 264.556 227.315 266.309C227.24 266.921 227.036 267.511 226.716 268.038C226.396 268.565 225.967 269.017 225.458 269.366C223.71 270.571 219.883 270.24 219.883 270.24C219.883 270.24 217.169 266.309 216.496 263.356C215.823 260.403 214.324 258.329 213.239 256.467C212.153 254.605 209.086 249.35 209.086 249.35" stroke="#263238" stroke-linecap="round" stroke-linejoin="round"/>
<path d="M216.056 261.152C216.056 261.152 218.352 265.853 220.866 267.167L216.056 261.152Z" fill="white"/>
<path d="M216.056 261.152C216.056 261.152 218.352 265.853 220.866 267.167" stroke="#263238" stroke-linecap="round" stroke-linejoin="round"/>
<path d="M209.086 236.344C207.968 240.003 207.062 243.725 206.371 247.488C205.731 250.879 205.368 254.316 205.286 257.765H206.817C206.817 257.765 206.708 251.098 207.799 245.74C208.412 242.618 209.391 239.579 210.714 236.686L209.086 236.344Z" fill="#A5F3FC" stroke="#263238" stroke-linecap="round" stroke-linejoin="round"/>
<path d="M148.141 435.075C149.117 435.283 149.901 435.771 150.493 436.539C151.085 437.291 151.381 438.155 151.381 439.131C151.381 440.539 150.885 441.659 149.893 442.491C148.917 443.307 147.549 443.715 145.789 443.715H137.941V426.867H145.525C147.237 426.867 148.573 427.259 149.533 428.043C150.509 428.827 150.997 429.891 150.997 431.235C150.997 432.227 150.733 433.051 150.205 433.707C149.693 434.363 149.005 434.819 148.141 435.075ZM142.045 433.683H144.733C145.405 433.683 145.917 433.539 146.269 433.251C146.637 432.947 146.821 432.507 146.821 431.931C146.821 431.355 146.637 430.915 146.269 430.611C145.917 430.307 145.405 430.155 144.733 430.155H142.045V433.683ZM145.069 440.403C145.757 440.403 146.285 440.251 146.653 439.947C147.037 439.627 147.229 439.171 147.229 438.579C147.229 437.987 147.029 437.523 146.629 437.187C146.245 436.851 145.709 436.683 145.021 436.683H142.045V440.403H145.069ZM152.945 436.995C152.945 435.619 153.201 434.411 153.713 433.371C154.241 432.331 154.953 431.531 155.849 430.971C156.745 430.411 157.745 430.131 158.849 430.131C159.793 430.131 160.617 430.323 161.321 430.707C162.041 431.091 162.593 431.595 162.977 432.219V430.323H167.081V443.715H162.977V441.819C162.577 442.443 162.017 442.947 161.297 443.331C160.593 443.715 159.769 443.907 158.825 443.907C157.737 443.907 156.745 443.627 155.849 443.067C154.953 442.491 154.241 441.683 153.713 440.643C153.201 439.587 152.945 438.371 152.945 436.995ZM162.977 437.019C162.977 435.995 162.689 435.187 162.113 434.595C161.553 434.003 160.865 433.707 160.049 433.707C159.233 433.707 158.537 434.003 157.961 434.595C157.401 435.171 157.121 435.971 157.121 436.995C157.121 438.019 157.401 438.835 157.961 439.443C158.537 440.035 159.233 440.331 160.049 440.331C160.865 440.331 161.553 440.035 162.113 439.443C162.689 438.851 162.977 438.043 162.977 437.019ZM175.139 430.131C176.083 430.131 176.907 430.323 177.611 430.707C178.331 431.091 178.883 431.595 179.267 432.219V430.323H183.371V443.691C183.371 444.923 183.123 446.035 182.627 447.027C182.147 448.035 181.403 448.835 180.395 449.427C179.403 450.019 178.163 450.315 176.675 450.315C174.691 450.315 173.083 449.843 171.851 448.899C170.619 447.971 169.915 446.707 169.739 445.107H173.795C173.923 445.619 174.227 446.019 174.707 446.307C175.187 446.611 175.779 446.763 176.483 446.763C177.331 446.763 178.003 446.515 178.499 446.019C179.011 445.539 179.267 444.763 179.267 443.691V441.795C178.867 442.419 178.315 442.931 177.611 443.331C176.907 443.715 176.083 443.907 175.139 443.907C174.035 443.907 173.035 443.627 172.139 443.067C171.243 442.491 170.531 441.683 170.003 440.643C169.491 439.587 169.235 438.371 169.235 436.995C169.235 435.619 169.491 434.411 170.003 433.371C170.531 432.331 171.243 431.531 172.139 430.971C173.035 430.411 174.035 430.131 175.139 430.131ZM179.267 437.019C179.267 435.995 178.979 435.187 178.403 434.595C177.843 434.003 177.155 433.707 176.339 433.707C175.523 433.707 174.827 434.003 174.251 434.595C173.691 435.171 173.411 435.971 173.411 436.995C173.411 438.019 173.691 438.835 174.251 439.443C174.827 440.035 175.523 440.331 176.339 440.331C177.155 440.331 177.843 440.035 178.403 439.443C178.979 438.851 179.267 438.043 179.267 437.019ZM188.404 428.931C187.684 428.931 187.092 428.723 186.628 428.307C186.18 427.875 185.956 427.347 185.956 426.723C185.956 426.083 186.18 425.555 186.628 425.139C187.092 424.707 187.684 424.491 188.404 424.491C189.108 424.491 189.684 424.707 190.132 425.139C190.596 425.555 190.828 426.083 190.828 426.723C190.828 427.347 190.596 427.875 190.132 428.307C189.684 428.723 189.108 428.931 188.404 428.931ZM190.444 430.323V443.715H186.34V430.323H190.444ZM201.602 443.715L197.522 438.099V443.715H193.418V425.955H197.522V435.771L201.578 430.323H206.642L201.074 437.043L206.69 443.715H201.602ZM207.438 436.995C207.438 435.619 207.694 434.411 208.206 433.371C208.734 432.331 209.446 431.531 210.342 430.971C211.238 430.411 212.238 430.131 213.342 430.131C214.286 430.131 215.11 430.323 215.814 430.707C216.534 431.091 217.086 431.595 217.47 432.219V430.323H221.574V443.715H217.47V441.819C217.07 442.443 216.51 442.947 215.79 443.331C215.086 443.715 214.262 443.907 213.318 443.907C212.23 443.907 211.238 443.627 210.342 443.067C209.446 442.491 208.734 441.683 208.206 440.643C207.694 439.587 207.438 438.371 207.438 436.995ZM217.47 437.019C217.47 435.995 217.182 435.187 216.606 434.595C216.046 434.003 215.358 433.707 214.542 433.707C213.726 433.707 213.03 434.003 212.454 434.595C211.894 435.171 211.614 435.971 211.614 436.995C211.614 438.019 211.894 438.835 212.454 439.443C213.03 440.035 213.726 440.331 214.542 440.331C215.358 440.331 216.046 440.035 216.606 439.443C217.182 438.851 217.47 438.043 217.47 437.019ZM232.703 430.179C234.271 430.179 235.519 430.691 236.447 431.715C237.391 432.723 237.863 434.115 237.863 435.891V443.715H233.783V436.443C233.783 435.547 233.551 434.851 233.087 434.355C232.623 433.859 231.999 433.611 231.215 433.611C230.431 433.611 229.807 433.859 229.343 434.355C228.879 434.851 228.647 435.547 228.647 436.443V443.715H224.543V430.323H228.647V432.099C229.063 431.507 229.623 431.043 230.327 430.707C231.031 430.355 231.823 430.179 232.703 430.179ZM255.569 443.715L249.905 436.275V443.715H245.801V426.867H249.905V434.259L255.521 426.867H260.345L253.817 435.123L260.585 443.715H255.569ZM264.599 428.931C263.879 428.931 263.287 428.723 262.823 428.307C262.375 427.875 262.151 427.347 262.151 426.723C262.151 426.083 262.375 425.555 262.823 425.139C263.287 424.707 263.879 424.491 264.599 424.491C265.303 424.491 265.879 424.707 266.327 425.139C266.791 425.555 267.023 426.083 267.023 426.723C267.023 427.347 266.791 427.875 266.327 428.307C265.879 428.723 265.303 428.931 264.599 428.931ZM266.639 430.323V443.715H262.535V430.323H266.639ZM275.061 443.907C273.893 443.907 272.853 443.707 271.941 443.307C271.029 442.907 270.309 442.363 269.781 441.675C269.253 440.971 268.957 440.187 268.893 439.323H272.949C272.997 439.787 273.213 440.163 273.597 440.451C273.981 440.739 274.453 440.883 275.013 440.883C275.525 440.883 275.917 440.787 276.189 440.595C276.477 440.387 276.621 440.123 276.621 439.803C276.621 439.419 276.421 439.139 276.021 438.963C275.621 438.771 274.973 438.563 274.077 438.339C273.117 438.115 272.317 437.883 271.677 437.643C271.037 437.387 270.485 436.995 270.021 436.467C269.557 435.923 269.325 435.195 269.325 434.283C269.325 433.515 269.533 432.819 269.949 432.195C270.381 431.555 271.005 431.051 271.821 430.683C272.653 430.315 273.637 430.131 274.773 430.131C276.453 430.131 277.773 430.547 278.733 431.379C279.709 432.211 280.269 433.315 280.413 434.691H276.621C276.557 434.227 276.349 433.859 275.997 433.587C275.661 433.315 275.213 433.179 274.653 433.179C274.173 433.179 273.805 433.275 273.549 433.467C273.293 433.643 273.165 433.891 273.165 434.211C273.165 434.595 273.365 434.883 273.765 435.075C274.181 435.267 274.821 435.459 275.685 435.651C276.677 435.907 277.485 436.163 278.109 436.419C278.733 436.659 279.277 437.059 279.741 437.619C280.221 438.163 280.469 438.899 280.485 439.827C280.485 440.611 280.261 441.315 279.813 441.939C279.381 442.547 278.749 443.027 277.917 443.379C277.101 443.731 276.149 443.907 275.061 443.907ZM282.18 436.995C282.18 435.619 282.436 434.411 282.948 433.371C283.476 432.331 284.188 431.531 285.084 430.971C285.98 430.411 286.98 430.131 288.084 430.131C289.028 430.131 289.852 430.323 290.556 430.707C291.276 431.091 291.828 431.595 292.212 432.219V430.323H296.316V443.715H292.212V441.819C291.812 442.443 291.252 442.947 290.532 443.331C289.828 443.715 289.004 443.907 288.06 443.907C286.972 443.907 285.98 443.627 285.084 443.067C284.188 442.491 283.476 441.683 282.948 440.643C282.436 439.587 282.18 438.371 282.18 436.995ZM292.212 437.019C292.212 435.995 291.924 435.187 291.348 434.595C290.788 434.003 290.1 433.707 289.284 433.707C288.468 433.707 287.772 434.003 287.196 434.595C286.636 435.171 286.356 435.971 286.356 436.995C286.356 438.019 286.636 438.835 287.196 439.443C287.772 440.035 288.468 440.331 289.284 440.331C290.1 440.331 290.788 440.035 291.348 439.443C291.924 438.851 292.212 438.043 292.212 437.019ZM307.517 430.179C309.053 430.179 310.285 430.691 311.213 431.715C312.141 432.723 312.605 434.115 312.605 435.891V443.715H308.525V436.443C308.525 435.547 308.293 434.851 307.829 434.355C307.365 433.859 306.741 433.611 305.957 433.611C305.173 433.611 304.549 433.859 304.085 434.355C303.621 434.851 303.389 435.547 303.389 436.443V443.715H299.285V425.955H303.389V432.123C303.805 431.531 304.373 431.059 305.093 430.707C305.813 430.355 306.621 430.179 307.517 430.179ZM332.545 430.179C334.209 430.179 335.529 430.683 336.505 431.691C337.497 432.699 337.993 434.099 337.993 435.891V443.715H333.913V436.443C333.913 435.579 333.681 434.915 333.217 434.451C332.769 433.971 332.145 433.731 331.345 433.731C330.545 433.731 329.913 433.971 329.449 434.451C329.001 434.915 328.777 435.579 328.777 436.443V443.715H324.697V436.443C324.697 435.579 324.465 434.915 324.001 434.451C323.553 433.971 322.929 433.731 322.129 433.731C321.329 433.731 320.697 433.971 320.233 434.451C319.785 434.915 319.561 435.579 319.561 436.443V443.715H315.457V430.323H319.561V432.003C319.977 431.443 320.521 431.003 321.193 430.683C321.865 430.347 322.625 430.179 323.473 430.179C324.481 430.179 325.377 430.395 326.161 430.827C326.961 431.259 327.585 431.875 328.033 432.675C328.497 431.939 329.129 431.339 329.929 430.875C330.729 430.411 331.601 430.179 332.545 430.179ZM354.087 430.323V443.715H349.983V441.891C349.567 442.483 348.999 442.963 348.279 443.331C347.575 443.683 346.791 443.859 345.927 443.859C344.903 443.859 343.999 443.635 343.215 443.187C342.431 442.723 341.823 442.059 341.391 441.195C340.959 440.331 340.743 439.315 340.743 438.147V430.323H344.823V437.595C344.823 438.491 345.055 439.187 345.519 439.683C345.983 440.179 346.607 440.427 347.391 440.427C348.191 440.427 348.823 440.179 349.287 439.683C349.751 439.187 349.983 438.491 349.983 437.595V430.323H354.087ZM137.958 471.075C138.934 471.283 139.718 471.771 140.31 472.539C140.902 473.291 141.198 474.155 141.198 475.131C141.198 476.539 140.702 477.659 139.71 478.491C138.734 479.307 137.366 479.715 135.606 479.715H127.758V462.867H135.342C137.054 462.867 138.39 463.259 139.35 464.043C140.326 464.827 140.814 465.891 140.814 467.235C140.814 468.227 140.55 469.051 140.022 469.707C139.51 470.363 138.822 470.819 137.958 471.075ZM131.862 469.683H134.55C135.222 469.683 135.734 469.539 136.086 469.251C136.454 468.947 136.638 468.507 136.638 467.931C136.638 467.355 136.454 466.915 136.086 466.611C135.734 466.307 135.222 466.155 134.55 466.155H131.862V469.683ZM134.886 476.403C135.574 476.403 136.102 476.251 136.47 475.947C136.854 475.627 137.046 475.171 137.046 474.579C137.046 473.987 136.846 473.523 136.446 473.187C136.062 472.851 135.526 472.683 134.838 472.683H131.862V476.403H134.886ZM156.202 472.803C156.202 473.187 156.178 473.587 156.13 474.003H146.842C146.906 474.835 147.17 475.475 147.634 475.923C148.114 476.355 148.698 476.571 149.386 476.571C150.41 476.571 151.122 476.139 151.522 475.275H155.89C155.666 476.155 155.258 476.947 154.666 477.651C154.09 478.355 153.362 478.907 152.482 479.307C151.602 479.707 150.618 479.907 149.53 479.907C148.218 479.907 147.05 479.627 146.026 479.067C145.002 478.507 144.202 477.707 143.626 476.667C143.05 475.627 142.762 474.411 142.762 473.019C142.762 471.627 143.042 470.411 143.602 469.371C144.178 468.331 144.978 467.531 146.002 466.971C147.026 466.411 148.202 466.131 149.53 466.131C150.826 466.131 151.978 466.403 152.986 466.947C153.994 467.491 154.778 468.267 155.338 469.275C155.914 470.283 156.202 471.459 156.202 472.803ZM152.002 471.723C152.002 471.019 151.762 470.459 151.282 470.043C150.802 469.627 150.202 469.419 149.482 469.419C148.794 469.419 148.21 469.619 147.73 470.019C147.266 470.419 146.978 470.987 146.866 471.723H152.002ZM162.471 468.555C162.951 467.819 163.551 467.243 164.271 466.827C164.991 466.395 165.791 466.179 166.671 466.179V470.523H165.543C164.519 470.523 163.751 470.747 163.239 471.195C162.727 471.627 162.471 472.395 162.471 473.499V479.715H158.367V466.323H162.471V468.555ZM174.081 479.907C172.913 479.907 171.873 479.707 170.961 479.307C170.049 478.907 169.329 478.363 168.801 477.675C168.273 476.971 167.977 476.187 167.913 475.323H171.969C172.017 475.787 172.233 476.163 172.617 476.451C173.001 476.739 173.473 476.883 174.033 476.883C174.545 476.883 174.937 476.787 175.209 476.595C175.497 476.387 175.641 476.123 175.641 475.803C175.641 475.419 175.441 475.139 175.041 474.963C174.641 474.771 173.993 474.563 173.097 474.339C172.137 474.115 171.337 473.883 170.697 473.643C170.057 473.387 169.505 472.995 169.041 472.467C168.577 471.923 168.345 471.195 168.345 470.283C168.345 469.515 168.553 468.819 168.969 468.195C169.401 467.555 170.025 467.051 170.841 466.683C171.673 466.315 172.657 466.131 173.793 466.131C175.473 466.131 176.793 466.547 177.753 467.379C178.729 468.211 179.289 469.315 179.433 470.691H175.641C175.577 470.227 175.369 469.859 175.017 469.587C174.681 469.315 174.233 469.179 173.673 469.179C173.193 469.179 172.825 469.275 172.569 469.467C172.313 469.643 172.185 469.891 172.185 470.211C172.185 470.595 172.385 470.883 172.785 471.075C173.201 471.267 173.841 471.459 174.705 471.651C175.697 471.907 176.505 472.163 177.129 472.419C177.753 472.659 178.297 473.059 178.761 473.619C179.241 474.163 179.489 474.899 179.505 475.827C179.505 476.611 179.281 477.315 178.833 477.939C178.401 478.547 177.769 479.027 176.937 479.379C176.121 479.731 175.169 479.907 174.081 479.907ZM181.199 472.995C181.199 471.619 181.455 470.411 181.967 469.371C182.495 468.331 183.207 467.531 184.103 466.971C184.999 466.411 185.999 466.131 187.103 466.131C188.047 466.131 188.871 466.323 189.575 466.707C190.295 467.091 190.847 467.595 191.231 468.219V466.323H195.335V479.715H191.231V477.819C190.831 478.443 190.271 478.947 189.551 479.331C188.847 479.715 188.023 479.907 187.079 479.907C185.991 479.907 184.999 479.627 184.103 479.067C183.207 478.491 182.495 477.683 181.967 476.643C181.455 475.587 181.199 474.371 181.199 472.995ZM191.231 473.019C191.231 471.995 190.943 471.187 190.367 470.595C189.807 470.003 189.119 469.707 188.303 469.707C187.487 469.707 186.791 470.003 186.215 470.595C185.655 471.171 185.375 471.971 185.375 472.995C185.375 474.019 185.655 474.835 186.215 475.443C186.791 476.035 187.487 476.331 188.303 476.331C189.119 476.331 189.807 476.035 190.367 475.443C190.943 474.851 191.231 474.043 191.231 473.019ZM215.392 466.179C217.056 466.179 218.376 466.683 219.352 467.691C220.344 468.699 220.84 470.099 220.84 471.891V479.715H216.76V472.443C216.76 471.579 216.528 470.915 216.064 470.451C215.616 469.971 214.992 469.731 214.192 469.731C213.392 469.731 212.76 469.971 212.296 470.451C211.848 470.915 211.624 471.579 211.624 472.443V479.715H207.544V472.443C207.544 471.579 207.312 470.915 206.848 470.451C206.4 469.971 205.776 469.731 204.976 469.731C204.176 469.731 203.544 469.971 203.08 470.451C202.632 470.915 202.408 471.579 202.408 472.443V479.715H198.304V466.323H202.408V468.003C202.824 467.443 203.368 467.003 204.04 466.683C204.712 466.347 205.472 466.179 206.32 466.179C207.328 466.179 208.224 466.395 209.008 466.827C209.808 467.259 210.432 467.875 210.88 468.675C211.344 467.939 211.976 467.339 212.776 466.875C213.576 466.411 214.448 466.179 215.392 466.179ZM222.895 472.995C222.895 471.619 223.151 470.411 223.663 469.371C224.191 468.331 224.903 467.531 225.799 466.971C226.695 466.411 227.695 466.131 228.799 466.131C229.743 466.131 230.567 466.323 231.271 466.707C231.991 467.091 232.543 467.595 232.927 468.219V466.323H237.031V479.715H232.927V477.819C232.527 478.443 231.967 478.947 231.247 479.331C230.543 479.715 229.719 479.907 228.775 479.907C227.687 479.907 226.695 479.627 225.799 479.067C224.903 478.491 224.191 477.683 223.663 476.643C223.151 475.587 222.895 474.371 222.895 472.995ZM232.927 473.019C232.927 471.995 232.639 471.187 232.063 470.595C231.503 470.003 230.815 469.707 229.999 469.707C229.183 469.707 228.487 470.003 227.911 470.595C227.351 471.171 227.071 471.971 227.071 472.995C227.071 474.019 227.351 474.835 227.911 475.443C228.487 476.035 229.183 476.331 229.999 476.331C230.815 476.331 231.503 476.035 232.063 475.443C232.639 474.851 232.927 474.043 232.927 473.019ZM256.27 468.195C255.966 467.635 255.526 467.211 254.95 466.923C254.39 466.619 253.726 466.467 252.958 466.467C251.63 466.467 250.566 466.907 249.766 467.787C248.966 468.651 248.566 469.811 248.566 471.267C248.566 472.819 248.982 474.035 249.814 474.915C250.662 475.779 251.822 476.211 253.294 476.211C254.302 476.211 255.15 475.955 255.838 475.443C256.542 474.931 257.054 474.195 257.374 473.235H252.166V470.211H261.094V474.027C260.79 475.051 260.27 476.003 259.534 476.883C258.814 477.763 257.894 478.475 256.774 479.019C255.654 479.563 254.39 479.835 252.982 479.835C251.318 479.835 249.83 479.475 248.518 478.755C247.222 478.019 246.206 477.003 245.47 475.707C244.75 474.411 244.39 472.931 244.39 471.267C244.39 469.603 244.75 468.123 245.47 466.827C246.206 465.515 247.222 464.499 248.518 463.779C249.814 463.043 251.294 462.675 252.958 462.675C254.974 462.675 256.67 463.163 258.046 464.139C259.438 465.115 260.358 466.467 260.806 468.195H256.27ZM262.551 472.995C262.551 471.619 262.807 470.411 263.319 469.371C263.847 468.331 264.559 467.531 265.455 466.971C266.351 466.411 267.351 466.131 268.455 466.131C269.399 466.131 270.223 466.323 270.927 466.707C271.647 467.091 272.199 467.595 272.583 468.219V466.323H276.687V479.715H272.583V477.819C272.183 478.443 271.623 478.947 270.903 479.331C270.199 479.715 269.375 479.907 268.431 479.907C267.343 479.907 266.351 479.627 265.455 479.067C264.559 478.491 263.847 477.683 263.319 476.643C262.807 475.587 262.551 474.371 262.551 472.995ZM272.583 473.019C272.583 471.995 272.295 471.187 271.719 470.595C271.159 470.003 270.471 469.707 269.655 469.707C268.839 469.707 268.143 470.003 267.567 470.595C267.007 471.171 266.727 471.971 266.727 472.995C266.727 474.019 267.007 474.835 267.567 475.443C268.143 476.035 268.839 476.331 269.655 476.331C270.471 476.331 271.159 476.035 271.719 475.443C272.295 474.851 272.583 474.043 272.583 473.019ZM283.76 461.955V479.715H279.656V461.955H283.76ZM299.358 472.803C299.358 473.187 299.334 473.587 299.286 474.003H289.998C290.062 474.835 290.326 475.475 290.79 475.923C291.27 476.355 291.854 476.571 292.542 476.571C293.566 476.571 294.278 476.139 294.678 475.275H299.046C298.822 476.155 298.414 476.947 297.822 477.651C297.246 478.355 296.518 478.907 295.638 479.307C294.758 479.707 293.774 479.907 292.686 479.907C291.374 479.907 290.206 479.627 289.182 479.067C288.158 478.507 287.358 477.707 286.782 476.667C286.206 475.627 285.918 474.411 285.918 473.019C285.918 471.627 286.198 470.411 286.758 469.371C287.334 468.331 288.134 467.531 289.158 466.971C290.182 466.411 291.358 466.131 292.686 466.131C293.982 466.131 295.134 466.403 296.142 466.947C297.15 467.491 297.934 468.267 298.494 469.275C299.07 470.283 299.358 471.459 299.358 472.803ZM295.158 471.723C295.158 471.019 294.918 470.459 294.438 470.043C293.958 469.627 293.358 469.419 292.638 469.419C291.95 469.419 291.366 469.619 290.886 470.019C290.422 470.419 290.134 470.987 290.022 471.723H295.158ZM305.627 468.555C306.107 467.819 306.707 467.243 307.427 466.827C308.147 466.395 308.947 466.179 309.827 466.179V470.523H308.699C307.675 470.523 306.907 470.747 306.395 471.195C305.883 471.627 305.627 472.395 305.627 473.499V479.715H301.523V466.323H305.627V468.555ZM313.853 464.931C313.133 464.931 312.541 464.723 312.077 464.307C311.629 463.875 311.405 463.347 311.405 462.723C311.405 462.083 311.629 461.555 312.077 461.139C312.541 460.707 313.133 460.491 313.853 460.491C314.557 460.491 315.133 460.707 315.581 461.139C316.045 461.555 316.277 462.083 316.277 462.723C316.277 463.347 316.045 463.875 315.581 464.307C315.133 464.723 314.557 464.931 313.853 464.931ZM315.893 466.323V479.715H311.789V466.323H315.893ZM335.955 466.179C337.619 466.179 338.939 466.683 339.915 467.691C340.907 468.699 341.403 470.099 341.403 471.891V479.715H337.323V472.443C337.323 471.579 337.091 470.915 336.627 470.451C336.179 469.971 335.555 469.731 334.755 469.731C333.955 469.731 333.323 469.971 332.859 470.451C332.411 470.915 332.187 471.579 332.187 472.443V479.715H328.107V472.443C328.107 471.579 327.875 470.915 327.411 470.451C326.963 469.971 326.339 469.731 325.539 469.731C324.739 469.731 324.107 469.971 323.643 470.451C323.195 470.915 322.971 471.579 322.971 472.443V479.715H318.867V466.323H322.971V468.003C323.387 467.443 323.931 467.003 324.603 466.683C325.275 466.347 326.035 466.179 326.883 466.179C327.891 466.179 328.787 466.395 329.571 466.827C330.371 467.259 330.995 467.875 331.443 468.675C331.907 467.939 332.539 467.339 333.339 466.875C334.139 466.411 335.011 466.179 335.955 466.179ZM357.497 466.323V479.715H353.393V477.891C352.977 478.483 352.409 478.963 351.689 479.331C350.985 479.683 350.201 479.859 349.337 479.859C348.313 479.859 347.409 479.635 346.625 479.187C345.841 478.723 345.233 478.059 344.801 477.195C344.369 476.331 344.153 475.315 344.153 474.147V466.323H348.233V473.595C348.233 474.491 348.465 475.187 348.929 475.683C349.393 476.179 350.017 476.427 350.801 476.427C351.601 476.427 352.233 476.179 352.697 475.683C353.161 475.187 353.393 474.491 353.393 473.595V466.323H357.497ZM362.365 479.907C361.645 479.907 361.053 479.699 360.589 479.283C360.141 478.851 359.917 478.323 359.917 477.699C359.917 477.059 360.141 476.523 360.589 476.091C361.053 475.659 361.645 475.443 362.365 475.443C363.069 475.443 363.645 475.659 364.093 476.091C364.557 476.523 364.789 477.059 364.789 477.699C364.789 478.323 364.557 478.851 364.093 479.283C363.645 479.699 363.069 479.907 362.365 479.907Z" fill="white"/>
</svg>
