<svg width="149" height="49" viewBox="0 0 149 49" fill="none" xmlns="http://www.w3.org/2000/svg">
<path d="M17.8794 12.15H33.0581L21.8987 28.6905H6.71997L17.8794 12.15Z" fill="#A5F3FC"/>
<path d="M18.5441 30.2235L14.2218 36.63H30.1206L41.28 20.0895H29.5457L22.7086 30.2235H18.5441Z" fill="#22D3EE"/>
<path d="M60.7228 21.23C60.4188 20.67 59.9788 20.246 59.4028 19.958C58.8428 19.654 58.1788 19.502 57.4108 19.502C56.0828 19.502 55.0188 19.942 54.2188 20.822C53.4188 21.686 53.0188 22.846 53.0188 24.302C53.0188 25.854 53.4348 27.07 54.2668 27.95C55.1148 28.814 56.2748 29.246 57.7468 29.246C58.7548 29.246 59.6028 28.99 60.2908 28.478C60.9948 27.966 61.5068 27.23 61.8268 26.27H56.6188V23.246H65.5468V27.062C65.2428 28.086 64.7228 29.038 63.9868 29.918C63.2668 30.798 62.3468 31.51 61.2268 32.054C60.1068 32.598 58.8428 32.87 57.4348 32.87C55.7708 32.87 54.2828 32.51 52.9708 31.79C51.6748 31.054 50.6588 30.038 49.9228 28.742C49.2028 27.446 48.8428 25.966 48.8428 24.302C48.8428 22.638 49.2028 21.158 49.9228 19.862C50.6588 18.55 51.6748 17.534 52.9708 16.814C54.2668 16.078 55.7468 15.71 57.4108 15.71C59.4268 15.71 61.1228 16.198 62.4988 17.174C63.8908 18.15 64.8108 19.502 65.2588 21.23H60.7228ZM67.004 26.03C67.004 24.654 67.26 23.446 67.772 22.406C68.3 21.366 69.012 20.566 69.908 20.006C70.804 19.446 71.804 19.166 72.908 19.166C73.852 19.166 74.676 19.358 75.38 19.742C76.1 20.126 76.652 20.63 77.036 21.254V19.358H81.14V32.75H77.036V30.854C76.636 31.478 76.076 31.982 75.356 32.366C74.652 32.75 73.828 32.942 72.884 32.942C71.796 32.942 70.804 32.662 69.908 32.102C69.012 31.526 68.3 30.718 67.772 29.678C67.26 28.622 67.004 27.406 67.004 26.03ZM77.036 26.054C77.036 25.03 76.748 24.222 76.172 23.63C75.612 23.038 74.924 22.742 74.108 22.742C73.292 22.742 72.596 23.038 72.02 23.63C71.46 24.206 71.18 25.006 71.18 26.03C71.18 27.054 71.46 27.87 72.02 28.478C72.596 29.07 73.292 29.366 74.108 29.366C74.924 29.366 75.612 29.07 76.172 28.478C76.748 27.886 77.036 27.078 77.036 26.054ZM88.2131 14.99V32.75H84.1091V14.99H88.2131ZM103.811 25.838C103.811 26.222 103.787 26.622 103.739 27.038H94.4512C94.5152 27.87 94.7792 28.51 95.2432 28.958C95.7232 29.39 96.3072 29.606 96.9952 29.606C98.0192 29.606 98.7312 29.174 99.1312 28.31H103.499C103.275 29.19 102.867 29.982 102.275 30.686C101.699 31.39 100.971 31.942 100.091 32.342C99.2112 32.742 98.2272 32.942 97.1392 32.942C95.8272 32.942 94.6592 32.662 93.6352 32.102C92.6112 31.542 91.8112 30.742 91.2352 29.702C90.6592 28.662 90.3712 27.446 90.3712 26.054C90.3712 24.662 90.6512 23.446 91.2112 22.406C91.7872 21.366 92.5872 20.566 93.6112 20.006C94.6352 19.446 95.8112 19.166 97.1392 19.166C98.4352 19.166 99.5872 19.438 100.595 19.982C101.603 20.526 102.387 21.302 102.947 22.31C103.523 23.318 103.811 24.494 103.811 25.838ZM99.6112 24.758C99.6112 24.054 99.3712 23.494 98.8912 23.078C98.4112 22.662 97.8112 22.454 97.0912 22.454C96.4032 22.454 95.8192 22.654 95.3392 23.054C94.8752 23.454 94.5872 24.022 94.4752 24.758H99.6112ZM110.08 21.59C110.56 20.854 111.16 20.278 111.88 19.862C112.6 19.43 113.4 19.214 114.28 19.214V23.558H113.152C112.128 23.558 111.36 23.782 110.848 24.23C110.336 24.662 110.08 25.43 110.08 26.534V32.75H105.976V19.358H110.08V21.59ZM115.426 26.03C115.426 24.654 115.682 23.446 116.194 22.406C116.722 21.366 117.434 20.566 118.33 20.006C119.226 19.446 120.226 19.166 121.33 19.166C122.274 19.166 123.098 19.358 123.802 19.742C124.522 20.126 125.074 20.63 125.458 21.254V19.358H129.562V32.75H125.458V30.854C125.058 31.478 124.498 31.982 123.778 32.366C123.074 32.75 122.25 32.942 121.306 32.942C120.218 32.942 119.226 32.662 118.33 32.102C117.434 31.526 116.722 30.718 116.194 29.678C115.682 28.622 115.426 27.406 115.426 26.03ZM125.458 26.054C125.458 25.03 125.17 24.222 124.594 23.63C124.034 23.038 123.346 22.742 122.53 22.742C121.714 22.742 121.018 23.038 120.442 23.63C119.882 24.206 119.602 25.006 119.602 26.03C119.602 27.054 119.882 27.87 120.442 28.478C121.018 29.07 121.714 29.366 122.53 29.366C123.346 29.366 124.034 29.07 124.594 28.478C125.17 27.886 125.458 27.078 125.458 26.054ZM136.371 29.366H142.179V32.75H131.787V29.486L137.355 22.742H131.835V19.358H142.059V22.622L136.371 29.366Z" fill="#22D3EE"/>
</svg>
